<svg width="24" height="24" viewBox="0 0 24 24" fill="none" xmlns="http://www.w3.org/2000/svg">
<path d="M19.4495 15.4044C18.9138 15.1664 18.4575 14.7699 18.1376 14.2643C17.8177 13.7587 17.6484 13.1665 17.6508 12.5616C17.6575 12.0215 17.7967 11.4921 18.0552 11.0233C18.3136 10.5546 18.6829 10.1619 19.1281 9.88242C19.2288 9.81781 19.3159 9.73268 19.384 9.63215C19.4522 9.53162 19.5 9.4178 19.5245 9.29756C19.5491 9.17731 19.5499 9.05315 19.5269 8.93257C19.5039 8.81199 19.4576 8.6975 19.3908 8.59602C18.9906 7.99203 18.4689 7.48538 17.8617 7.11104C17.2545 6.7367 16.5763 6.50358 15.8739 6.42778C16.5279 5.35052 16.8246 4.08084 16.719 2.81224C16.6985 2.58187 16.5928 2.3687 16.4241 2.2175C16.2555 2.06629 16.0369 1.98881 15.8144 2.00131C14.3105 2.14028 12.9163 2.87664 11.9227 4.05682C11.2926 4.81456 10.848 5.71897 10.6266 6.69325C10.1694 6.5324 9.69067 6.44712 9.20795 6.44051C8.31435 6.46691 7.44248 6.73255 6.67686 7.21167C5.91125 7.69078 5.27786 8.36713 4.83811 9.17513C3.18387 12.1543 4.1962 16.619 5.98618 19.3072C6.70427 20.3836 7.78228 22 9.40849 22C9.44089 22 9.47329 22 9.50482 21.9982C10.0498 21.9664 10.5833 21.8234 11.075 21.5773C11.4677 21.3705 11.901 21.2603 12.3413 21.2554C12.755 21.2608 13.1618 21.366 13.5296 21.5627C14.0672 21.8268 14.6531 21.9681 15.2478 21.9773C16.923 21.9445 17.9126 20.4436 18.6351 19.3472C19.2053 18.4764 19.6516 17.5248 19.96 16.5217C20.0259 16.3027 20.0099 16.0659 19.9151 15.8587C19.8203 15.6514 19.6537 15.4889 19.4486 15.4035L19.4495 15.4044ZM13.2494 5.24412C13.7093 4.71014 14.2854 4.29806 14.9299 4.04227C14.7886 4.7621 14.4765 5.43394 14.0218 5.99686C13.7133 6.38161 13.3378 6.70265 12.9149 6.94325L12.9122 6.94416L12.8378 6.97507C12.6749 7.04144 12.4726 7.12417 12.3168 7.1778C12.4671 6.46263 12.7883 5.79787 13.2494 5.24412ZM17.1901 18.3217C16.4869 19.3881 15.9335 20.1454 15.2163 20.159C14.8702 20.1577 14.53 20.0664 14.2267 19.8936C13.6395 19.5966 12.9954 19.4406 12.3422 19.4372C11.6663 19.4408 10.9996 19.6001 10.3902 19.9036C10.0939 20.0604 9.7707 20.1549 9.43914 20.1818H9.41287C8.70091 20.1818 7.93553 19.0345 7.42674 18.2717C6.15519 16.3626 4.98172 12.5598 6.35573 10.0824C6.64385 9.54645 7.06053 9.09689 7.56534 8.77736C8.07014 8.45783 8.64594 8.27918 9.23685 8.25874H9.26662C9.7654 8.30253 10.2525 8.43927 10.7046 8.66239C10.8184 8.70875 10.9322 8.75603 11.0452 8.79875C11.0737 8.81215 11.1029 8.82369 11.1328 8.8333C11.4447 8.96342 11.7759 9.03632 12.1118 9.04876C12.5871 9.00981 13.0514 8.88037 13.4815 8.66693C14.0874 8.36128 14.7536 8.20627 15.4273 8.21419C16.148 8.24369 16.8397 8.51625 17.3977 8.99058C16.9208 9.44687 16.5412 10.0017 16.2832 10.6193C16.0251 11.237 15.8944 11.9038 15.8993 12.577V12.5779C15.8942 13.393 16.0884 14.1961 16.4636 14.912C16.8388 15.628 17.3829 16.2334 18.0448 16.6717C17.8146 17.2502 17.5277 17.803 17.1901 18.3217Z" fill="#2B2B2B"/>
</svg>
