<svg width="14" height="14" viewBox="0 0 14 14" fill="none" xmlns="http://www.w3.org/2000/svg">
<path d="M4.08329 12.8334H1.74996C1.39996 12.8334 1.16663 12.6001 1.16663 12.2501V9.91677C1.16663 9.33344 1.34163 8.7501 1.63329 8.28344C1.98329 7.81677 2.39163 7.40844 2.91663 7.23344C3.44163 7.05844 4.08329 6.94177 4.66663 7.05844C5.24996 7.1751 5.77496 7.46677 6.18329 7.8751C6.59163 8.28344 6.88329 8.80844 6.99996 9.39177C7.11663 9.9751 7.05829 10.5584 6.82496 11.0834C6.59163 11.6084 6.24163 12.0751 5.77496 12.3668C5.24996 12.6584 4.66663 12.8334 4.08329 12.8334ZM2.33329 11.6668H4.08329C4.43329 11.6668 4.78329 11.5501 5.07496 11.3751C5.36663 11.2001 5.59996 10.9084 5.71663 10.6168C5.83329 10.3251 5.89163 9.9751 5.83329 9.6251C5.77496 9.2751 5.59996 8.98344 5.36663 8.7501C5.13329 8.51677 4.78329 8.34177 4.49163 8.28344C4.08329 8.10844 3.73329 8.16677 3.44163 8.28344C3.14996 8.4001 2.85829 8.63344 2.68329 8.9251C2.44996 9.21677 2.33329 9.56677 2.33329 9.91677V11.6668Z" fill="#2B2B2B"/>
<path d="M6.30001 9.80008C6.06668 9.80008 5.83335 9.68342 5.77501 9.45008C5.65835 9.15842 5.83335 8.80841 6.12501 8.69175C7.58335 8.10842 8.86668 7.17508 9.85835 5.95008C10.675 4.95841 11.2583 3.73341 11.55 2.50841C10.2667 2.80008 9.10001 3.38341 8.10835 4.20008C6.88335 5.19175 5.95001 6.47508 5.36668 7.93342C5.25001 8.22508 4.90001 8.40008 4.60835 8.28342C4.31668 8.16675 4.14168 7.81675 4.25835 7.52508C4.90001 5.83341 5.95001 4.37508 7.35001 3.26675C8.75001 2.15841 10.3833 1.40008 12.1917 1.16675C12.3667 1.16675 12.5417 1.22508 12.6583 1.34175C12.775 1.45841 12.8333 1.63341 12.8333 1.80841C12.6 3.55841 11.9 5.25008 10.7917 6.65008C9.68335 8.05008 8.22501 9.10008 6.53335 9.74175C6.41668 9.80008 6.35835 9.80008 6.30001 9.80008Z" fill="#2B2B2B"/>
<path d="M8.75002 8.39988C8.51669 8.39988 8.34169 8.28322 8.22502 8.04988C7.75835 7.05822 6.94169 6.24155 5.95002 5.77488C5.65835 5.65822 5.54169 5.30822 5.65835 5.01655C5.77502 4.72488 6.12502 4.60822 6.41669 4.72488C7.70002 5.30822 8.69169 6.29988 9.27502 7.58322C9.39169 7.87488 9.27502 8.22488 8.98335 8.34155C8.92502 8.39988 8.80835 8.39988 8.75002 8.39988Z" fill="#2B2B2B"/>
</svg>
