<svg width="24" height="24" viewBox="0 0 24 24" fill="none" xmlns="http://www.w3.org/2000/svg">
<path d="M12 22C10.755 22 9.585 21.7612 8.49 21.2836C7.395 20.8061 6.4425 20.1585 5.6325 19.3409C4.8225 18.5227 4.1814 17.5606 3.7092 16.4545C3.237 15.3485 3.0006 14.1667 3 12.9091C3 11.1818 3.4464 9.58697 4.3392 8.12454C5.232 6.66212 6.4428 5.54485 7.9716 4.77273C7.9866 5.06061 8.0166 5.35242 8.0616 5.64818C8.1066 5.94394 8.1816 6.28848 8.2866 6.68182C7.2066 7.34848 6.3552 8.23121 5.7324 9.33C5.1096 10.4288 4.7988 11.6218 4.8 12.9091C4.8 14.9394 5.4975 16.6591 6.8925 18.0682C8.2875 19.4773 9.99 20.1818 12 20.1818C14.01 20.1818 15.7125 19.4773 17.1075 18.0682C18.5025 16.6591 19.2 14.9394 19.2 12.9091C19.2 11.6212 18.8886 10.4242 18.2658 9.31818C17.643 8.21212 16.7844 7.32576 15.69 6.65909C15.795 6.26515 15.87 5.92061 15.915 5.62545C15.96 5.3303 15.9975 5.04606 16.0275 4.77273C17.5575 5.54545 18.7689 6.65909 19.6617 8.11364C20.5545 9.56818 21.0006 11.1667 21 12.9091C21 14.1667 20.7636 15.3485 20.2908 16.4545C19.818 17.5606 19.1769 18.5227 18.3675 19.3409C17.5575 20.1591 16.605 20.807 15.51 21.2845C14.415 21.7621 13.245 22.0006 12 22ZM12 18.3636C10.5 18.3636 9.225 17.8333 8.175 16.7727C7.125 15.7121 6.6 14.4242 6.6 12.9091C6.6 12.0303 6.7914 11.2045 7.1742 10.4318C7.557 9.65909 8.1006 9.01515 8.805 8.5C8.88 8.72727 8.9625 8.98879 9.0525 9.28454C9.1425 9.5803 9.2625 9.94758 9.4125 10.3864C9.0825 10.7348 8.8311 11.1212 8.6583 11.5455C8.4855 11.9697 8.3994 12.4242 8.4 12.9091C8.4 13.9091 8.7525 14.7652 9.4575 15.4773C10.1625 16.1894 11.01 16.5455 12 16.5455C12.99 16.5455 13.8375 16.1894 14.5425 15.4773C15.2475 14.7652 15.6 13.9091 15.6 12.9091C15.6 12.4242 15.5136 11.9697 15.3408 11.5455C15.168 11.1212 14.9169 10.7348 14.5875 10.3864C14.7075 10.0227 14.8164 9.68545 14.9142 9.37455C15.012 9.06364 15.0981 8.77212 15.1725 8.5C15.8775 9.01515 16.425 9.65909 16.815 10.4318C17.205 11.2045 17.4 12.0303 17.4 12.9091C17.4 14.4242 16.875 15.7121 15.825 16.7727C14.775 17.8333 13.5 18.3636 12 18.3636ZM11.1 9.72727C10.545 8.0303 10.1811 6.83697 10.0083 6.14727C9.8355 5.45758 9.7494 4.83273 9.75 4.27273C9.75 3.63636 9.9675 3.09848 10.4025 2.65909C10.8375 2.2197 11.37 2 12 2C12.63 2 13.1625 2.2197 13.5975 2.65909C14.0325 3.09848 14.25 3.63636 14.25 4.27273C14.25 4.83333 14.1636 5.45848 13.9908 6.14818C13.818 6.83788 13.4544 8.03091 12.9 9.72727H11.1ZM12 14.7273C11.505 14.7273 11.0811 14.5491 10.7283 14.1927C10.3755 13.8364 10.1994 13.4085 10.2 12.9091C10.2 12.4091 10.3764 11.9809 10.7292 11.6245C11.082 11.2682 11.5056 11.0903 12 11.0909C12.495 11.0909 12.9189 11.2691 13.2717 11.6255C13.6245 11.9818 13.8006 12.4097 13.8 12.9091C13.8 13.4091 13.6236 13.8373 13.2708 14.1936C12.918 14.55 12.4944 14.7279 12 14.7273Z" fill="#2B2B2B"/>
</svg>
