<?xml version="1.0" encoding="utf-8"?>
<!-- Generator: Adobe Illustrator 21.1.0, SVG Export Plug-In . SVG Version: 6.00 Build 0)  -->
<svg version="1.1" id="Layer_1" xmlns="http://www.w3.org/2000/svg" xmlns:xlink="http://www.w3.org/1999/xlink" x="0px" y="0px"
	 viewBox="0 0 24 24" style="enable-background:new 0 0 24 24;" xml:space="preserve">
<style type="text/css">
	.st0{fill:#727272;}
</style>
<path class="st0" d="M16.5,3C19,3,21,5.2,21,8c0,3.7-3.3,6.9-8.3,11.9L12,20.6l-0.7-0.7C6.3,14.9,3,11.7,3,8c0-2.8,2-5,4.5-5
	c1.4,0,2.8,0.7,3.7,1.9l0.8,1l0.8-1C13.7,3.7,15.1,3,16.5,3 M16.5,2c-1.7,0-3.4,0.9-4.5,2.3C10.9,2.9,9.2,2,7.5,2C4.4,2,2,4.6,2,8
	c0,4.1,3.4,7.5,8.6,12.6L12,22l1.4-1.4C18.6,15.5,22,12.1,22,8C22,4.6,19.6,2,16.5,2L16.5,2z"/>
</svg>
