<svg width="24" height="24" viewBox="0 0 24 24" fill="none" xmlns="http://www.w3.org/2000/svg">
<circle cx="12" cy="12" r="12" fill="#2B2B2B"/>
<path d="M14.9167 13.8784C14.9167 14.4501 14.45 14.9167 13.8783 14.9167C13.3067 14.9167 12.8458 14.4501 12.8458 13.8784C12.8458 13.3067 13.3067 12.8459 13.8783 12.8459C14.45 12.8459 14.9167 13.3067 14.9167 13.8784ZM10.1508 11.1834C10.7225 11.1834 11.1833 10.7226 11.1833 10.1509C11.1833 9.57341 10.7225 9.11258 10.1508 9.11258C9.57332 9.11258 9.11249 9.57341 9.11249 10.1509C9.11249 10.7226 9.57332 11.1834 10.1508 11.1834ZM9.08332 14.0592L9.95832 14.9342L14.9342 9.95841L14.0592 9.08341L9.08332 14.0592ZM17.8333 12.0001C17.8333 15.2084 15.2083 17.8334 12 17.8334C8.79166 17.8334 6.16666 15.2084 6.16666 12.0001C6.16666 8.79175 8.79166 6.16675 12 6.16675C15.2083 6.16675 17.8333 8.79175 17.8333 12.0001ZM16.6667 12.0001C16.6667 9.42758 14.5725 7.33341 12 7.33341C9.42749 7.33341 7.33332 9.42758 7.33332 12.0001C7.33332 14.5726 9.42749 16.6667 12 16.6667C14.5725 16.6667 16.6667 14.5726 16.6667 12.0001Z" fill="white"/>
</svg>
