<svg width="24" height="24" viewBox="0 0 24 24" fill="none" xmlns="http://www.w3.org/2000/svg">
<circle cx="12" cy="12" r="12" fill="#2B2B2B"/>
<path d="M7.40626 13.7499C7.51321 13.7499 7.60071 13.7159 7.66876 13.6478C7.73682 13.5798 7.77084 13.4923 7.77084 13.3853V11.7083L9.11251 13.5458C9.16112 13.6041 9.22198 13.6527 9.29509 13.6916C9.36821 13.7305 9.44346 13.7499 9.52084 13.7499C9.64723 13.7499 9.75184 13.7087 9.83468 13.6263C9.91751 13.5438 9.95873 13.4392 9.95834 13.3124V10.6145C9.95834 10.5076 9.92432 10.4201 9.85626 10.352C9.78821 10.2839 9.70071 10.2499 9.59376 10.2499C9.48682 10.2499 9.39932 10.2839 9.33126 10.352C9.26321 10.4201 9.22918 10.5076 9.22918 10.6145V12.2916L7.91668 10.4687C7.86807 10.4103 7.80721 10.3592 7.73409 10.3153C7.66098 10.2713 7.58573 10.2495 7.50834 10.2499C7.38196 10.2499 7.27248 10.2962 7.17993 10.3888C7.08737 10.4813 7.04129 10.5906 7.04168 10.7166V13.3853C7.04168 13.4923 7.07571 13.5798 7.14376 13.6478C7.21182 13.7159 7.29932 13.7499 7.40626 13.7499ZM10.8333 13.7499H12.5104C12.6174 13.7499 12.7049 13.7159 12.7729 13.6478C12.841 13.5798 12.875 13.4923 12.875 13.3853C12.875 13.2784 12.841 13.1909 12.7729 13.1228C12.7049 13.0548 12.6174 13.0208 12.5104 13.0208H11.4167V12.3791H12.5104C12.6174 12.3791 12.7049 12.3451 12.7729 12.277C12.841 12.2089 12.875 12.1214 12.875 12.0145C12.875 11.9076 12.841 11.8201 12.7729 11.752C12.7049 11.6839 12.6174 11.6499 12.5104 11.6499H11.4167V10.9791H12.5104C12.6174 10.9791 12.7049 10.9451 12.7729 10.877C12.841 10.8089 12.875 10.7214 12.875 10.6145C12.875 10.5076 12.841 10.4201 12.7729 10.352C12.7049 10.2839 12.6174 10.2499 12.5104 10.2499H10.8333C10.7556 10.2499 10.6875 10.2791 10.6292 10.3374C10.5708 10.3958 10.5417 10.4638 10.5417 10.5416V13.4583C10.5417 13.536 10.5708 13.6041 10.6292 13.6624C10.6875 13.7208 10.7556 13.7499 10.8333 13.7499ZM14.0417 13.7499H16.375C16.5403 13.7499 16.6789 13.6941 16.7909 13.5825C16.9029 13.4709 16.9587 13.3323 16.9583 13.1666V10.6145C16.9583 10.5076 16.9243 10.4201 16.8563 10.352C16.7882 10.2839 16.7007 10.2499 16.5938 10.2499C16.4868 10.2499 16.3993 10.2839 16.3313 10.352C16.2632 10.4201 16.2292 10.5076 16.2292 10.6145V12.8749H15.5875V11.1978C15.5875 11.0909 15.5535 11.0034 15.4854 10.9353C15.4174 10.8673 15.3299 10.8333 15.2229 10.8333C15.116 10.8333 15.0285 10.8673 14.9604 10.9353C14.8924 11.0034 14.8583 11.0909 14.8583 11.1978V12.8749H14.1875V10.6145C14.1875 10.5076 14.1535 10.4201 14.0854 10.352C14.0174 10.2839 13.9299 10.2499 13.8229 10.2499C13.716 10.2499 13.6285 10.2839 13.5604 10.352C13.4924 10.4201 13.4583 10.5076 13.4583 10.6145V13.1666C13.4583 13.3319 13.5143 13.4705 13.6263 13.5825C13.7383 13.6945 13.8768 13.7503 14.0417 13.7499ZM6.75001 16.6666C6.42918 16.6666 6.15443 16.5524 5.92576 16.3242C5.69709 16.0959 5.58296 15.8211 5.58334 15.4999V8.49992C5.58334 8.17909 5.69768 7.90434 5.92634 7.67567C6.15501 7.447 6.42957 7.33286 6.75001 7.33325H17.25C17.5708 7.33325 17.8456 7.44759 18.0743 7.67625C18.3029 7.90492 18.4171 8.17947 18.4167 8.49992V15.4999C18.4167 15.8208 18.3023 16.0955 18.0737 16.3242C17.845 16.5528 17.5705 16.667 17.25 16.6666H6.75001ZM6.75001 15.4999H17.25V8.49992H6.75001V15.4999Z" fill="white"/>
</svg>
