<svg width="24" height="24" viewBox="0 0 24 24" fill="none" xmlns="http://www.w3.org/2000/svg">
<circle cx="12" cy="12" r="12" fill="#2B2B2B"/>
<path d="M9.85364 15.6196L11.9999 14.2641L14.1461 15.6374L13.584 13.0691L15.4747 11.3569L12.9878 11.125L11.9999 8.69939L11.0119 11.1072L8.52502 11.3391L10.4157 13.0691L9.85364 15.6196ZM11.9999 15.9406L9.17229 17.7242C9.04738 17.8074 8.91679 17.8431 8.78052 17.8312C8.64425 17.8193 8.52502 17.7717 8.42282 17.6885C8.32062 17.6053 8.24113 17.5013 8.18435 17.3767C8.12757 17.2517 8.11621 17.1118 8.15028 16.9572L8.89976 13.5863L6.39583 11.3212C6.28227 11.2142 6.21141 11.0922 6.18325 10.9552C6.15463 10.8187 6.16303 10.6851 6.20846 10.5543C6.25388 10.4235 6.32201 10.3165 6.41286 10.2332C6.5037 10.15 6.62862 10.0965 6.7876 10.0727L10.0921 9.76953L11.3696 6.5948C11.4264 6.45212 11.5145 6.3451 11.634 6.27376C11.753 6.20242 11.8749 6.16675 11.9999 6.16675C12.1248 6.16675 12.247 6.20242 12.3664 6.27376C12.4854 6.3451 12.5733 6.45212 12.6301 6.5948L13.9076 9.76953L17.2121 10.0727C17.3711 10.0965 17.496 10.15 17.5869 10.2332C17.6777 10.3165 17.7458 10.4235 17.7913 10.5543C17.8367 10.6851 17.8453 10.8187 17.8172 10.9552C17.7885 11.0922 17.7175 11.2142 17.6039 11.3212L15.1 13.5863L15.8494 16.9572C15.8835 17.1118 15.8722 17.2517 15.8154 17.3767C15.7586 17.5013 15.6791 17.6053 15.5769 17.6885C15.4747 17.7717 15.3555 17.8193 15.2192 17.8312C15.0829 17.8431 14.9523 17.8074 14.8274 17.7242L11.9999 15.9406Z" fill="white"/>
</svg>
