<svg width="12" height="12" viewBox="0 0 12 12" fill="none" xmlns="http://www.w3.org/2000/svg">
<path d="M4.16027 9.10243L5.99989 7.94057L7.83951 9.11772L7.35771 6.9163L8.97833 5.44869L6.8467 5.24995L5.99989 3.17084L5.15308 5.23466L3.02145 5.4334L4.64207 6.9163L4.16027 9.10243ZM5.99989 9.3776L3.57626 10.9064C3.46919 10.9777 3.35726 11.0083 3.24046 10.9981C3.12365 10.9879 3.02145 10.9471 2.93385 10.8758C2.84625 10.8044 2.77812 10.7154 2.72945 10.6086C2.68078 10.5013 2.67105 10.3815 2.70025 10.249L3.34266 7.35964L1.19643 5.41812C1.0991 5.32639 1.03836 5.22182 1.01422 5.10441C0.989692 4.98741 0.996895 4.87286 1.03583 4.76075C1.07476 4.64864 1.13316 4.55691 1.21103 4.48557C1.2889 4.41423 1.39597 4.36837 1.53223 4.34798L4.36467 4.0881L5.45968 1.3669C5.50835 1.2446 5.58388 1.15288 5.68628 1.09173C5.78828 1.03058 5.89282 1 5.99989 1C6.10696 1 6.21169 1.03058 6.31409 1.09173C6.41609 1.15288 6.49143 1.2446 6.5401 1.3669L7.63511 4.0881L10.4675 4.34798C10.6038 4.36837 10.7109 4.41423 10.7887 4.48557C10.8666 4.55691 10.925 4.64864 10.964 4.76075C11.0029 4.87286 11.0103 4.98741 10.9861 5.10441C10.9616 5.22182 10.9007 5.32639 10.8033 5.41812L8.65712 7.35964L9.29953 10.249C9.32873 10.3815 9.319 10.5013 9.27033 10.6086C9.22166 10.7154 9.15353 10.8044 9.06593 10.8758C8.97833 10.9471 8.87612 10.9879 8.75932 10.9981C8.64252 11.0083 8.53059 10.9777 8.42352 10.9064L5.99989 9.3776Z" fill="#727272"/>
</svg>
