<svg width="12" height="12" viewBox="0 0 12 12" fill="none" xmlns="http://www.w3.org/2000/svg">
<path d="M5.99975 8.95872L3.57605 10.411C3.46898 10.4788 3.35705 10.5079 3.24024 10.4982C3.12344 10.4885 3.02123 10.4498 2.93363 10.382C2.84602 10.3142 2.77789 10.2294 2.72922 10.1276C2.68055 10.0257 2.67082 9.91203 2.70002 9.78655L3.34244 7.04166L1.19616 5.19721C1.09882 5.11007 1.03808 5.01073 1.01394 4.89919C0.989804 4.78766 0.997007 4.67883 1.03555 4.57271C1.07449 4.46621 1.13289 4.37907 1.21076 4.31129C1.28863 4.24352 1.3957 4.19995 1.53197 4.18059L4.36449 3.93369L5.45953 1.34856C5.5082 1.23237 5.58373 1.14523 5.68613 1.08714C5.78853 1.02905 5.89307 1 5.99975 1C6.10682 1 6.21136 1.02905 6.31337 1.08714C6.41538 1.14523 6.49091 1.23237 6.53997 1.34856L7.63502 3.93369L10.4675 4.18059C10.6038 4.19995 10.7109 4.24352 10.7887 4.31129C10.8666 4.37907 10.925 4.46621 10.9639 4.57271C11.0029 4.67922 11.0103 4.78824 10.9861 4.89977C10.962 5.01131 10.9011 5.11046 10.8033 5.19721L8.65706 7.04166L9.29948 9.78655C9.32868 9.91242 9.31895 10.0263 9.27028 10.1281C9.22161 10.23 9.15348 10.3146 9.06587 10.382C8.97827 10.4498 8.87607 10.4885 8.75926 10.4982C8.64246 10.5079 8.53052 10.4788 8.42345 10.411L5.99975 8.95872Z" fill="#FBB03E"/>
</svg>
