<svg width="124" height="14" viewBox="0 0 124 14" fill="none" xmlns="http://www.w3.org/2000/svg">
<path d="M0.802002 13V1.1H2.145V13H0.802002Z" fill="#0B0B0B"/>
<path d="M5.08627 13V12.099L12.7873 2.307H5.34127V1.1H14.6233V2.001L6.90527 11.793H14.6233V13H5.08627Z" fill="#0B0B0B"/>
<path d="M17.5364 13V1.1H18.8794V13H17.5364Z" fill="#0B0B0B"/>
<path d="M22.3646 13V1.1H26.8186C28.1786 1.1 29.261 1.44 30.0656 2.12C30.8703 2.8 31.2726 3.72933 31.2726 4.908C31.2726 6.14333 30.825 7.101 29.9296 7.781C29.0456 8.461 27.935 8.801 26.5976 8.801H23.7076V13H22.3646ZM23.7076 7.577H26.6486C27.6346 7.577 28.4223 7.339 29.0116 6.863C29.6123 6.37566 29.9126 5.72966 29.9126 4.925C29.9126 4.09766 29.6236 3.463 29.0456 3.021C28.479 2.56766 27.7026 2.341 26.7166 2.341H23.7076V7.577Z" fill="#0B0B0B"/>
<path d="M33.8391 13V1.1H35.1821V13H33.8391Z" fill="#0B0B0B"/>
<path d="M38.1234 13V12.099L45.8244 2.307H38.3784V1.1H47.6604V2.001L39.9424 11.793H47.6604V13H38.1234Z" fill="#0B0B0B"/>
<path d="M50.5735 13V1.1H51.9165V13H50.5735Z" fill="#0B0B0B"/>
<path d="M55.0278 13V11.215H56.5918V13H55.0278Z" fill="#0B0B0B"/>
<path d="M61.2074 13.085L56.9574 1.1H58.4194L61.8194 11.011L65.0834 1.066H66.1884L69.4524 11.011L72.8524 1.1H74.2634L70.0134 13.085H68.8744L65.6104 3.429L62.3294 13.085H61.2074Z" fill="#0B0B0B"/>
<path d="M85.9813 11.402C84.8366 12.6033 83.3803 13.204 81.6123 13.204C79.8443 13.204 78.3936 12.6033 77.2603 11.402C76.127 10.2007 75.5603 8.75 75.5603 7.05C75.5603 5.36133 76.1326 3.91633 77.2773 2.715C78.422 1.50233 79.8783 0.895996 81.6463 0.895996C83.4143 0.895996 84.865 1.49666 85.9983 2.698C87.1316 3.89933 87.6983 5.35 87.6983 7.05C87.6983 8.73866 87.126 10.1893 85.9813 11.402ZM78.2803 10.535C79.1756 11.487 80.2976 11.963 81.6463 11.963C82.995 11.963 84.1056 11.4927 84.9783 10.552C85.8623 9.6 86.3043 8.43266 86.3043 7.05C86.3043 5.67866 85.8566 4.517 84.9613 3.565C84.0773 2.613 82.961 2.137 81.6123 2.137C80.2636 2.137 79.1473 2.613 78.2633 3.565C77.3906 4.50566 76.9543 5.66733 76.9543 7.05C76.9543 8.42133 77.3963 9.583 78.2803 10.535Z" fill="#0B0B0B"/>
<path d="M90.5307 13V1.1H95.6477C97.1097 1.1 98.2373 1.49666 99.0307 2.29C99.6427 2.902 99.9487 3.69533 99.9487 4.67C99.9487 5.622 99.654 6.39266 99.0647 6.982C98.4753 7.57133 97.6933 7.95666 96.7187 8.138L100.374 13H98.7247L95.2737 8.376H91.8737V13H90.5307ZM91.8737 7.169H95.5287C96.4353 7.169 97.172 6.948 97.7387 6.506C98.3053 6.064 98.5887 5.45766 98.5887 4.687C98.5887 3.95033 98.3167 3.378 97.7727 2.97C97.24 2.55066 96.4977 2.341 95.5457 2.341H91.8737V7.169Z" fill="#0B0B0B"/>
<path d="M102.816 13V1.1H104.159V11.759H110.857V13H102.816Z" fill="#0B0B0B"/>
<path d="M113.341 13V1.1H117.472C119.331 1.1 120.85 1.66666 122.028 2.8C123.207 3.922 123.796 5.33866 123.796 7.05C123.796 8.75 123.201 10.1667 122.011 11.3C120.833 12.4333 119.32 13 117.472 13H113.341ZM114.684 11.759H117.472C118.957 11.759 120.147 11.317 121.042 10.433C121.949 9.53766 122.402 8.41 122.402 7.05C122.402 5.70133 121.949 4.57933 121.042 3.684C120.136 2.78866 118.946 2.341 117.472 2.341H114.684V11.759Z" fill="#0B0B0B"/>
</svg>
