<svg width="40" height="40" viewBox="0 0 40 40" fill="none" xmlns="http://www.w3.org/2000/svg">
<path d="M20 3.33325C17.8113 3.33325 15.6441 3.76435 13.622 4.60193C11.5999 5.4395 9.76257 6.66716 8.21493 8.21481C5.08932 11.3404 3.33337 15.5796 3.33337 19.9999C3.33337 24.4202 5.08932 28.6594 8.21493 31.785C9.76257 33.3327 11.5999 34.5603 13.622 35.3979C15.6441 36.2355 17.8113 36.6666 20 36.6666C24.4203 36.6666 28.6595 34.9106 31.7852 31.785C34.9108 28.6594 36.6667 24.4202 36.6667 19.9999C36.6667 17.8112 36.2356 15.644 35.398 13.6219C34.5605 11.5998 33.3328 9.76245 31.7852 8.21481C30.2375 6.66716 28.4002 5.4395 26.3781 4.60193C24.356 3.76435 22.1887 3.33325 20 3.33325ZM11.7834 30.4666C12.5 28.9666 16.8667 27.4999 20 27.4999C23.1334 27.4999 27.5 28.9666 28.2167 30.4666C25.8823 32.3266 22.9848 33.3375 20 33.3333C16.9 33.3333 14.05 32.2666 11.7834 30.4666ZM30.6 28.0499C28.2167 25.1499 22.4334 24.1666 20 24.1666C17.5667 24.1666 11.7834 25.1499 9.40004 28.0499C7.62702 25.741 6.66615 22.9111 6.66671 19.9999C6.66671 12.6499 12.65 6.66659 20 6.66659C27.35 6.66659 33.3334 12.6499 33.3334 19.9999C33.3334 23.0333 32.3 25.8333 30.6 28.0499ZM20 9.99992C16.7667 9.99992 14.1667 12.5999 14.1667 15.8333C14.1667 19.0666 16.7667 21.6666 20 21.6666C23.2334 21.6666 25.8334 19.0666 25.8334 15.8333C25.8334 12.5999 23.2334 9.99992 20 9.99992ZM20 18.3333C19.337 18.3333 18.7011 18.0699 18.2323 17.601C17.7634 17.1322 17.5 16.4963 17.5 15.8333C17.5 15.1702 17.7634 14.5343 18.2323 14.0655C18.7011 13.5966 19.337 13.3333 20 13.3333C20.6631 13.3333 21.299 13.5966 21.7678 14.0655C22.2366 14.5343 22.5 15.1702 22.5 15.8333C22.5 16.4963 22.2366 17.1322 21.7678 17.601C21.299 18.0699 20.6631 18.3333 20 18.3333Z" fill="#BFBFBF"/>
</svg>
